<svg xmlns="http://www.w3.org/2000/svg" width="48" height="48"><path d="M5 19h38v19H5zm0 0" fill="#cfd8dc"/><path d="M5 38h38v4H5zm0 0" fill="#b0bec5"/><path d="M12 24h24v18H12zm0 0" fill="#e3f2fd"/><path d="M13 25h22v17H13zm0 0" fill="#2196f3"/><path d="M35 42H13v-7l22-10zm0 0" fill="#64b5f6"/><path d="M27 19a3 3 0 1 1-6.002-.002A3 3 0 0 1 27 19M39 19a3 3 0 1 1-6.002-.002A3 3 0 0 1 39 19M9 19a3 3 0 1 0 6.002-.002A3 3 0 0 0 9 19" fill="#d84315"/><path d="M40 6H8c-1.105 0-2 .895-2 2v3h36V8c0-1.105-.895-2-2-2M21 11h6v8h-6zm0 0M37 11h-5l1 8h6zm0 0M11 11h5l-1 8H9zm0 0" fill="#ff5722"/><path d="M33 19a3 3 0 1 1-6.002-.002A3 3 0 0 1 33 19M45 19a3 3 0 1 1-3-3zm0 0M15 19a3 3 0 1 0 6.002-.002A3 3 0 0 0 15 19M3 19a3 3 0 1 0 3-3zm0 0" fill="#ffa000"/><path d="M32 11h-5v8h6zm0 0M42 11h-5l2 8h6zm0 0M16 11h5v8h-6zm0 0M6 11h5l-2 8H3zm0 0" fill="#ffc107"/><path d="M23 25h2v17h-2zm0 0" fill="#1976d2"/><path d="M23 30.453V42h2V29.547zm0 0M29 34c0 .55-.45 1-1 1s-1-.45-1-1 .45-1 1-1 1 .45 1 1zm0 0M21 34c0 .55-.45 1-1 1s-1-.45-1-1 .45-1 1-1 1 .45 1 1zm0 0" fill="#1e88e5"/></svg>